<svg xmlns="http://www.w3.org/2000/svg" viewBox="0 0 24 24" width="100" height="100">
  <path fill="#000000" d="M22 19.5c-2.83 0-5.5-1.29-8-3.61-2.5 2.32-5.17 3.61-8 3.61h-2v2h2c2.83 0 5.5-1.29 8-3.61 2.5 2.32 5.17 3.61 8 3.61h2v-2h-2zM12 17.5c-2.21 0-4-1.79-4-4s1.79-4 4-4s4 1.79 4 4s-1.79 4-4 4zM2.1 1.69c-0.39-0.39-1.02-0.39-1.41 0s-0.39 1.02 0 1.41l0.71 0.71L2 4.83l-0.29-0.29-0.71-0.71c-0.39-0.39-1.02-0.39-1.41 0s-0.39 1.02 0 1.41L1.17 6H0v2h1v2h2V9H3.83l0.29 0.29 0.71 0.71c0.39 0.39 1.02 0.39 1.41 0s0.39-1.02 0-1.41L4.83 9L6 7.83L6.83 7H8V5H6.83L6 4.17L4.83 3L3.17 4.66L2.1 1.69zM10 0H11V1H10V0zM12 0H13V1H12V0zM14 0H15V1H14V0zM16 0H17V1H16V0zM18 0H19V1H18V0zM20 0H21V1H20V0zM23 1.69L21.83 3L20.17 1.34L19.1 4.31c-0.39-0.39-1.02-0.39-1.41 0s-0.39 1.02 0 1.41L18.17 6H17v2h1v2h2V9h-1.17l-0.29 0.29L17 11.17L16.17 12L15 10.83L14.17 10H13V8h1.17l0.29-0.29L13 7.17L12.17 6L11 7.17L10.17 8H9V6H6v-2h1.17l0.71-0.71L7 2.17L6.17 1.4L5.1 4.31c-0.39-0.39-1.02-0.39-1.41 0s-0.39 1.02 0 1.41L4.17 6H2v2h1v2h2V9H4.83l-0.29 0.29L2.1 15.69C2.07 15.75 2.03 15.81 2 15.87V17c0 1.1 0.9 2 2 2h0.86l-0.84 0.84L3.7 21.7c-0.39 0.39-0.39 1.02 0 1.41s1.02 0.39 1.41 0L7 20.41l0.84 0.84c0.39 0.39 1.02 0.39 1.41 0s0.39-1.02 0-1.41L8.41 19L9 18.41V15.87C9 15.33 9.33 14.8 9.82 14.59L14 12.28V5.71l3.19 1.41c0.24 0.11 0.51 0.09 0.73-0.04l2.8-1.12c0.39-0.16 0.61-0.57 0.56-0.97S23.45 1.7 23.05 1.85L20.17 3L21.83 4.66L23 1.69C23.03 1.63 23.07 1.57 23 1.51V0H22V1H20V0H18V1H16V0H14V1H12V0H10V1H8V0H6V1H4V0H2V1H0V3H1V23H2V24H4V23H2V3H23V1H21V0H23Z"/>
</svg>
